PathFileType	4	(X/Y/Z)	Kaydara	
DataRate	CameraRate	NumFrames	NumMarkers	Units	OrigDataRate	OrigDataStartFrame	OrigNumFrames	
240.00	240.00	4	72	mm	240.00	267	355	
Frame#	Time	Hips			RightUpLeg			RightLeg			RightFoot			RightFoot_End			LeftUpLeg			LeftLeg			LeftFoot			LeftFoot_End			Spine			Spine1			Spine2			Spine3			Neck			Head			Head_End			RightShoulder			RightArm			RightForeArm			RightHand			RightHandThumb1			RightHandThumb2			RightHandThumb3			RightHandThumb3_End			RightInHandIndex			RightHandIndex1			RightHandIndex2			RightHandIndex3			RightHandIndex3_End			RightInHandMiddle			RightHandMiddle1			RightHandMiddle2			RightHandMiddle3			RightHandMiddle3_End			RightInHandRing			RightHandRing1			RightHandRing2			RightHandRing3			RightHandRing3_End			RightInHandPinky			RightHandPinky1			RightHandPinky2			RightHandPinky3			RightHandPinky3_End			LeftShoulder			LeftArm			LeftForeArm			LeftHand			LeftHandThumb1			LeftHandThumb2			LeftHandThumb3			LeftHandThumb3_End			LeftInHandIndex			LeftHandIndex1			LeftHandIndex2			LeftHandIndex3			LeftHandIndex3_End			LeftInHandMiddle			LeftHandMiddle1			LeftHandMiddle2			LeftHandMiddle3			LeftHandMiddle3_End			LeftInHandRing			LeftHandRing1			LeftHandRing2			LeftHandRing3			LeftHandRing3_End			LeftInHandPinky			LeftHandPinky1			LeftHandPinky2			LeftHandPinky3			LeftHandPinky3_End			
		X1	Y1	Z1	X2	Y2	Z2	X3	Y3	Z3	X4	Y4	Z4	X5	Y5	Z5	X6	Y6	Z6	X7	Y7	Z7	X8	Y8	Z8	X9	Y9	Z9	X10	Y10	Z10	X11	Y11	Z11	X12	Y12	Z12	X13	Y13	Z13	X14	Y14	Z14	X15	Y15	Z15	X16	Y16	Z16	X17	Y17	Z17	X18	Y18	Z18	X19	Y19	Z19	X20	Y20	Z20	X21	Y21	Z21	X22	Y22	Z22	X23	Y23	Z23	X24	Y24	Z24	X25	Y25	Z25	X26	Y26	Z26	X27	Y27	Z27	X28	Y28	Z28	X29	Y29	Z29	X30	Y30	Z30	X31	Y31	Z31	X32	Y32	Z32	X33	Y33	Z33	X34	Y34	Z34	X35	Y35	Z35	X36	Y36	Z36	X37	Y37	Z37	X38	Y38	Z38	X39	Y39	Z39	X40	Y40	Z40	X41	Y41	Z41	X42	Y42	Z42	X43	Y43	Z43	X44	Y44	Z44	X45	Y45	Z45	X46	Y46	Z46	X47	Y47	Z47	X48	Y48	Z48	X49	Y49	Z49	X50	Y50	Z50	X51	Y51	Z51	X52	Y52	Z52	X53	Y53	Z53	X54	Y54	Z54	X55	Y55	Z55	X56	Y56	Z56	X57	Y57	Z57	X58	Y58	Z58	X59	Y59	Z59	X60	Y60	Z60	X61	Y61	Z61	X62	Y62	Z62	X63	Y63	Z63	X64	Y64	Z64	X65	Y65	Z65	X66	Y66	Z66	X67	Y67	Z67	X68	Y68	Z68	X69	Y69	Z69	X70	Y70	Z70	X71	Y71	Z71	X72	Y72	Z72	

267	1.108	2921.0129	906.651	56.2195	2935.3301550528467	865.3655861366109	-16.8578636983733	2866.519004219845	456.45167014540266	-70.66196799701613	2953.715929299937	97.91942651257449	-187.32468527386933	2881.003949874883	17.697716455016476	-29.83543112152921	2913.24045200699	919.0072791416178	141.2646590832862	2860.3551144459548	518.3662332591474	250.47799746517288	2774.689439840628	88.29902677888684	291.27237971991354	2655.2334113305637	-0.7639342468086948	172.0200183065103	2890.9313437981996	1036.667357425522	4.936640262722486	2841.461069548206	1109.2542088715907	-36.193831119066175	2784.0012512926687	1179.940119176092	-79.17938163010257	2720.3918742793667	1239.1738918638305	-120.4337872423576	2651.7516406168534	1302.104785077992	-163.84533123875474	2588.6299613871774	1359.685061538701	-202.13648545175604	2464.1141733376826	1451.6251780473922	-237.6112654522672	2676.1342674010493	1267.9527602775188	-169.53956841230672	2668.3434290317355	1221.254483019079	-231.29901597930316	2671.8837834282913	1059.2219506856236	-126.85379114494863	2654.9375579059115	992.653998417678	-101.82229939263524	2664.409492351604	1009.1696489305839	-113.90098383909151	2663.8060416490744	1008.4882240965504	-115.53728018088223	2662.3073576953116	1005.0583638283383	-114.8693075075465	2660.1353913335024	999.6708417202924	-112.76618597072839	2662.231165716871	1001.094089560905	-109.17174671563512	2665.8324834607006	998.686451763202	-110.91927988577329	2663.9662790958946	991.6525145454402	-108.7064389595809	2661.005093419254	986.9324456718919	-106.78531961282984	2657.339318786776	982.7915283649389	-104.82731779646942	2658.964806881855	992.8852128722623	-104.03185314455013	2660.711897845684	986.0982195016005	-102.9571524525069	2658.227368288918	977.3407709709282	-99.8543528688389	2654.439754791832	971.1269455826292	-97.20636660584059	2650.324188311545	966.3436103801348	-94.90342557355893	2656.6032909909154	987.1816897493167	-100.37927355529878	2656.230425875208	976.2493846377545	-96.31373601442074	2653.6036895886427	967.5207317049097	-92.90740007679173	2649.705309061984	960.9451595852928	-89.98044723570855	2645.719565378967	956.1718996907304	-87.63845936477156	2653.4773259872063	980.40516818	-95.93490902199721	2651.3370795613832	966.3157835796751	-89.54500324292462	2648.5154908945215	957.6643160477898	-85.7398125839477	2645.324580305957	952.0641550624633	-83.08364863588451	2641.593915380609	947.3731662267421	-80.70904839195975	2673.4681929348612	1295.4425996640841	-128.54161650087698	2686.9357851681084	1314.927633854569	-41.55116342288298	2740.8533513977363	1106.773281793069	-60.737326300335134	2699.98044497283	962.1131773140517	-51.02108955940945	2691.881691099031	977.5545412781086	-56.24592421822842	2691.6308495661688	971.7962002006229	-60.64385348236963	2693.022121128988	964.4308788082461	-63.17625715430001	2695.521606290338	955.4204321510318	-64.8337398819373	2696.3621873218126	968.1939441328569	-54.81400861044053	2698.3299761300073	959.6272063085454	-58.68813941630906	2701.7826133555163	946.9874857421164	-61.43891430821887	2703.644311304982	938.8616242214088	-63.3104946444569	2704.9931279430584	931.9552326666061	-64.9684899809633	2700.651877705136	959.0490580712046	-53.23939531063625	2704.890903665736	945.748747451894	-56.16638507471106	2709.2206536937174	930.7691030053447	-58.947762189123985	2711.736523129697	920.3958395469963	-61.10006015421834	2713.3435316265964	912.5620452384703	-62.86282505337745	2703.6218044144116	952.8509733581194	-52.02482151344822	2709.9681329450696	935.6800924642275	-53.58413444804481	2714.310060065778	921.4308065636989	-55.77868391894784	2717.0385066561994	910.7914387227787	-57.7327535731495	2718.692465422042	903.1254792981238	-59.33238999417818	2707.0707094055924	945.6075676652114	-50.538332012321014	2714.9830852154355	925.538454185754	-51.04245132553266	2719.318634618146	912.3415445892705	-52.43461599507089	2721.7241572610396	903.7169012412222	-53.68329224468796	2723.428351095115	896.4287251168796	-54.998651371561984
268	1.113	2921.0129	906.651	56.2195	2934.8267963266762	865.1769193648664	-16.958674130324894	2866.025911753911	456.2251411142699	-70.51607398934041	2953.778587147089	97.85298988178582	-187.47081248654072	2881.0670969354437	17.606737217915352	-29.993668508359598	2913.714276221625	919.1936338056987	141.37516716693293	2860.9854304810056	518.5925651147176	250.80415079277114	2775.013223729237	88.53740219880184	291.34468670614774	2655.648960019099	-0.6232683550316976	172.0687903878883	2891.0763286488964	1036.6844883150554	4.899059414511485	2841.6038696535497	1109.3123659497242	-36.163240200535	2784.122795234341	1180.044289500721	-79.05281954102341	2720.4640637317534	1239.3254136958894	-120.1719093482232	2651.769911362136	1302.3030305152413	-163.43923206102713	2588.599638856714	1359.9218935577678	-201.59940284080244	2464.060209354595	1451.8809054623905	-236.95072240396664	2676.0104672830957	1268.0265279486173	-169.16784711179537	2665.96120488633	1219.7281281806577	-229.26415482461277	2669.6341656937534	1058.635732904257	-123.57363231517897	2649.7631939748626	991.908417259713	-100.63003317102311	2659.5252087654626	1008.6131373575348	-112.58354370324072	2659.134524448557	1007.8231837311283	-114.33934761238568	2657.7130524069585	1004.3024389350331	-113.76202321153728	2655.5447520479083	998.8260597827731	-111.74082056690213	2657.1068699675056	1000.5285302449934	-107.84472809586423	2660.574627447185	998.2159647006815	-109.52085423302684	2658.6809730799378	991.0961389688256	-107.39027756540371	2655.8068388770785	986.2443026911275	-105.59222650332131	2652.283344106838	981.9414579511076	-103.7846043513064	2653.6552795592397	992.267494570887	-102.73378191841232	2655.171887742115	985.545061963223	-101.60505251338324	2652.6334799969272	976.6865110080154	-98.59623405138757	2648.9394090653004	970.3101712660823	-96.09875076295344	2644.9739422753337	965.3479359827969	-93.96133648278553	2651.165150319268	986.526156966409	-99.10217028583487	2650.470700389786	975.6231671644093	-95.0025931938354	2647.772924555873	966.7987319119245	-91.68258167776676	2643.9519864344575	960.0623317626263	-88.90314142880139	2640.1013149580617	955.1189309784729	-86.71789939795165	2647.9039227972257	979.6917764032912	-94.69432640878877	2645.381411148631	965.5985471712556	-88.29131043881965	2642.4667818558387	956.8582891662926	-84.56228194171501	2639.3148694448023	951.1349702093005	-82.01711664357457	2635.6937907500924	946.2898984563786	-79.78332737796156	2673.6730328783055	1295.737297158653	-128.2027195759373	2687.776463545078	1315.801183902147	-41.275552802015206	2741.7506344831922	1107.4507529743375	-59.313736494348845	2700.0015333421356	962.8742504263885	-48.28029440100045	2692.1233196473736	978.2245005800187	-53.3542068054775	2691.906965416659	972.4123856164964	-57.45983042715163	2693.3057019374155	965.0223538190087	-59.82662840791727	2695.7972499117136	956.0022036618607	-61.37852382909245	2696.5818700485434	968.900285960518	-52.069879803912826	2698.7174633812683	960.3011232727039	-55.969817353139184	2702.195232425717	947.6437396522211	-58.60303480926165	2704.0227129459563	939.5017253487292	-60.29422228056053	2705.309588733729	932.5784777212568	-61.730525217301306	2700.816343589443	959.791407552282	-50.591164162842816	2705.1892007432757	946.4789438373238	-53.59523335088592	2709.5384295518925	931.4848857463879	-56.260733061921286	2712.009204850581	921.0944701332072	-58.2013430270894	2713.5465848203494	913.2433655940957	-59.7244303911797	2703.743833149534	953.6196158065941	-49.44531273509932	2710.175765771123	936.460746008933	-51.13812636408671	2714.5263310230553	922.2038861749688	-53.244210163788836	2717.2068513198356	911.550622027979	-55.00074911351078	2718.793243009816	903.8696428255208	-56.378181277008174	2707.13222405302	946.4072404340083	-48.02444674847098	2715.088735014484	926.3683542598955	-48.69694427609826	2719.417808583759	913.1731088390089	-50.037231378887974	2721.7818957077848	904.5420698360728	-51.151000052680985	2723.4225087633063	897.2427402204852	-52.274800786996956
269	1.117	2921.0129	906.651	56.2195	2934.185545157867	864.9490840461139	-17.030532925728558	2865.22415672376	455.9952034305662	-70.38256573524708	2953.565487804465	97.80043913199964	-187.64776752439911	2880.8681592839157	17.555509707722248	-30.16264649187984	2914.317975396657	919.4212009184012	141.46520055471137	2861.7573037457864	518.8602331968955	251.1155108352263	2775.478391403377	88.81753667490383	291.4031772179516	2656.2067712206986	-0.4379257070314902	172.10058913272508	2891.2610259037065	1036.694101933293	4.823593630042557	2841.8054375837146	1109.373454995107	-36.175621842040364	2784.316608613253	1180.160745643246	-78.97260047503508	2720.61017473578	1239.4915357200603	-119.95576794319382	2651.864098536729	1302.518209916772	-163.07886703006142	2588.644989947835	1360.1745966777498	-201.10968346214568	2464.088387664753	1452.1550572902474	-236.35170517538145	2675.9679408605534	1268.1207933000248	-168.84647233740307	2664.0392186935105	1218.5409213734745	-227.50218421472817	2668.409489132459	1058.6338096181853	-120.32929676282905	2644.6843388079988	992.0497321731567	-99.18561174851216	2654.7552423000957	1008.8763629305978	-111.08638064109815	2654.4956561043155	1007.9701640463339	-112.9570483051262	2653.0987820053765	1004.3663668273477	-112.44746815412887	2650.8939302255026	998.8189561332704	-110.47226359561418	2652.1260614091534	1000.8213061735793	-106.27628185270085	2655.496655700039	998.620307937763	-107.81508408233601	2653.5358523450072	991.4398396149018	-105.70936416743596	2650.68210026755	986.4674512241453	-104.01349682790905	2647.2173805628127	982.0089407242763	-102.34895554660812	2648.4964685148425	992.5441082626908	-101.14253037655129	2649.8220233909615	985.9217911881113	-99.86748930008528	2647.187171346906	976.9943994548782	-96.88337997949681	2643.506571535202	970.4713383304424	-94.5080222973398	2639.6000107602927	965.3381540187147	-92.52660159504636	2645.882599181376	986.7899165295679	-97.4969813299118	2644.9081666082097	975.969626477449	-93.250288403099	2642.1029525054064	967.0822904471416	-89.94959371944641	2638.282592742211	960.202825352478	-87.2867725094443	2634.48142528314	955.0979578610957	-85.2476444596165	2642.485194119196	979.9263623741906	-93.08753048954773	2639.6203550602963	965.8957740092847	-86.54408221707631	2636.5844462969153	957.1002525533002	-82.82770837629312	2633.415905670973	951.2702139505689	-80.36624292744075	2629.8288670778793	946.2807463816494	-78.26110460198116	2673.946857424708	1296.0437532775325	-127.90452816441591	2688.6836680516085	1316.6780286657972	-41.0467592410813	2742.2388489651603	1108.029427101337	-58.68508612565756	2699.611956861621	963.5177441435189	-46.36075612025558	2692.034296319301	978.802451232194	-51.26902196447856	2691.897672764665	973.0051085775135	-54.96809697665421	2693.3162135434777	965.6337118791754	-57.07848678657374	2695.7937119904204	956.6362381112307	-58.43947788889494	2696.4076675676665	969.4957142814633	-50.09651899841366	2698.6736636118817	960.881919178483	-53.87786698122435	2702.16046689346	948.2487137895577	-56.26155732454317	2703.9676892640737	940.1349240863617	-57.69338997129047	2705.220344987334	933.2439403120497	-58.84472263023846	2700.536562320541	960.4116845776845	-48.68664862648356	2704.979525479188	947.0983784410838	-51.61233351436119	2709.324155789017	932.1340698616688	-54.01481020234776	2711.7635537487704	921.7793259726146	-55.64695981181601	2713.260118172477	913.9643087257888	-56.86039898013954	2703.3867546881183	954.2575244072798	-47.59430883592457	2709.816237381153	937.1123339795383	-49.26872896007004	2714.1479015638624	922.8848530656037	-51.15512724166902	2716.7902469498113	912.2678270337203	-52.61921533654239	2718.334513688638	904.6216475815869	-53.70790673496116	2706.677377055818	947.068234880406	-46.22400640432669	2714.5734966891328	927.0551265504688	-46.91696345744446	2718.8642057633488	913.8887274080159	-48.09632855783845	2721.1892117396055	905.2866956324847	-49.004034291607034	2722.7860426941475	898.0196743112878	-49.87623171855466
270	1.121	2921.0129	906.651	56.2195	2933.465648969321	864.7001469821421	-17.083015635335048	2864.253508463672	455.76409792092505	-70.26187453998375	2953.2158227418845	97.76331293306185	-187.85395382255504	2880.5464914010513	17.53570659495044	-30.34584949857613	2914.9989871814532	919.6717003984347	141.54068559533326	2862.605058878961	519.1489709583204	251.40541784044186	2776.020129113268	89.11894726716541	291.44041201865855	2656.840799154491	-0.22756615578119227	172.10846359780314	2891.45395517296	1036.6963842893838	4.726495579667652	2842.0249296411635	1109.4315183809435	-36.21398990818104	2784.5362984697786	1180.2782310520217	-78.9227088083583	2720.785061356679	1239.659484608617	-119.77349157384599	2651.990459484651	1302.7361101630163	-162.7567388295605	2588.72498224926	1360.429941578019	-200.662985943635	2464.1563982814723	1452.4324202238995	-235.81027715617978	2675.9630808505362	1268.220946079636	-168.5664460252318	2662.6184748955566	1217.6805230393934	-226.12972108814625	2668.0858828151036	1059.1941682257782	-117.33786403616038	2640.358777060123	993.2659352684277	-97.09705399282838	2650.695261786759	1010.1579296551628	-109.0200551729047	2650.472437594167	1009.1685372854322	-110.95373379284571	2649.0504979207135	1005.5171817851214	-110.45621591899803	2646.7814074843463	999.9390020811333	-108.46384721044812	2647.9189346173525	1002.1662226417137	-104.08273552867672	2651.238817071453	1000.1131508605094	-105.40891551119354	2649.1887152001873	992.9279857416851	-103.23643744733235	2646.2950089830156	987.8736622851508	-101.58605762389561	2642.8077141468434	983.2940369281813	-100.01784575123963	2644.150738059739	993.906986969059	-98.87370442611328	2645.3518737359345	987.4386980614104	-97.35053578307222	2642.601386788838	978.5079364442283	-94.28443737885495	2638.8638545224358	971.8868666153621	-91.9595741570385	2634.9283493092344	966.6215703424201	-90.0814224722474	2641.440445303452	988.1629000393151	-95.17932171929968	2640.271412777666	977.4929049762287	-90.6647202532012	2637.3470118446057	968.6041710866176	-87.2836239024792	2633.461963181737	961.6309858292698	-84.66475923540126	2629.628950959458	956.4022853058592	-82.72047996445293	2637.9317456723975	981.2973313197509	-90.72821432780994	2634.820485516442	967.4073913537544	-83.90968535083616	2631.661277763542	958.6124865869338	-80.11615668670406	2628.4320762788025	952.7149286517041	-77.68057359384404	2624.809073360096	947.6162482884018	-75.65590120188658	2674.24485305827	1296.3491421070787	-127.63813190928909	2689.6070893973047	1317.5508135481693	-40.85616698462334	2742.3045217171866	1108.5145168466581	-58.73440498660245	2698.745049870372	964.0554971672669	-45.14925145998287	2691.4931487346666	979.3413060671775	-49.87704974549593	2691.4656434418885	973.6531071807187	-53.09477587513937	2692.9155120355717	966.3585913983693	-54.880517350920975	2695.380917454217	957.4259573053946	-55.97989978031729	2695.74841782735	970.0270595450685	-48.75719528013803	2698.1136298936644	961.4532389946731	-52.24663037746926	2701.6047512991604	948.9052313361061	-54.259766530290186	2703.4078113826176	940.8720878482384	-55.38338153857044	2704.652404561347	934.0665288919583	-56.22709337099402	2699.7493054796787	960.946742728074	-47.37825887516674	2704.219819161207	947.6744181024815	-50.03599917809533	2708.5518676576544	932.8035062462104	-52.03894741869554	2710.9779460095383	922.546269438395	-53.30155445100894	2712.461654464184	914.8248219797102	-54.1795251078626	2702.50691364546	954.7936171383927	-46.31693319973978	2708.8818448622474	937.6843858662812	-47.78314915033211	2713.1848188278786	923.5386943504188	-49.32664513951035	2715.8049046940546	913.0159238173312	-50.43711255623003	2717.3326230243365	905.4578207365073	-51.211719375742	2705.684920210517	947.608842387288	-44.97735702748481	2713.4629014228944	927.6296040376203	-45.50393850716873	2717.703221517218	914.5291428697141	-46.417930237106425	2719.9987300491794	905.9960768719058	-47.072157332568324	2721.5732697987028	898.8072007838086	-47.6686912205344
